<svg version="1" xmlns="http://www.w3.org/2000/svg" width="1280" height="1280" viewBox="0 0 960.000000 960.000000"><path d="M447 67.6c-41.7 3.7-71.7 9.5-104.3 20.5-120.2 40.4-215.2 135.4-255.6 255.6-8.9 26.4-15.3 55.2-18.8 84.8-2.5 21.1-2.5 70.9 0 92 11.2 94 50.4 175.2 116.7 241.5 59.4 59.4 131.2 97.3 213 112.4 34.6 6.4 19.8 6 261.8 6.3l220.3.4-.4-220.3c-.3-242 .1-227.2-6.3-261.8-15.1-81.8-53-153.6-112.4-213-66-66-147.9-105.7-240.5-116.5-13.3-1.6-62.8-2.8-73.5-1.9z" fill="#FFF"/><path d="M407.9 240.5c-19.2 3.1-33.7 7.8-51.1 16.7-16.4 8.3-27.4 16.4-41.9 30.8-14.1 14-23.8 27.5-31.9 44.4-23.9 49.6-22.2 109.9 4.4 156.6 3.8 6.8 20.5 47.5 58.6 143.5 29.3 73.7 54.1 135.4 55.1 137.1 2.4 4 9.6 10.6 14 13.1 5.2 2.8 22.9 2.6 28.4-.4 5.5-2.9 11-8.7 13.7-14.2 3-6.2 3.7-19.9 1.4-26.8-.9-2.6-16.5-42.3-34.7-88.1-18.2-45.8-32.9-83.6-32.6-83.9.3-.3 4.6.2 9.4 1.2 11.7 2.3 41.2 3.1 54 1.5 16.4-2 35.3-7.5 50.9-14.6.7-.3 26 33.5 58.4 77.8 31.5 43.1 59.1 80.2 61.4 82.6 7.1 7.5 11.6 9.6 22.2 10 8.2.4 9.8.2 14.6-2 7.2-3.3 10.8-6.6 14.3-13 2.8-5 3-6 3-16.3 0-10-.2-11.4-2.6-15.5-1.4-2.5-28.5-40-60.2-83.3-31.7-43.4-57.7-79.2-57.7-79.5 0-.4 1.9-3 4.2-5.7 11.2-13.5 22.9-34.7 28.8-52.2 5-15 9-38.1 9-51.8 0-2.5.4-4.5.8-4.5.5 0 34.8 27.7 76.3 61.6 41.5 33.9 77.4 62.6 79.9 63.7 6.7 3.1 20.6 3.1 27.5-.1 11.5-5.3 17.5-15.1 17.5-28.6 0-8.9-2-15.1-6.7-20.5C793.7 477 616 331 559 285.2c-4.3-3.5-8.5-5.9-12.6-7.2-4.2-1.2-9.1-4.1-15.1-8.4-16.9-12.5-40.2-22.8-62.8-27.6-13-2.8-47.4-3.7-60.6-1.5z" fill="#3D4459"/></svg>